<svg width="512" height="512" viewBox="0 0 512 512" fill="none" xmlns="http://www.w3.org/2000/svg">
  <rect width="512" height="512" rx="112" fill="#030303"/>
  <rect x="24" y="24" width="464" height="464" rx="92" stroke="url(#goldStroke)" stroke-width="10"/>
  <path d="M118 188L74 256L118 324" stroke="#F4D58D" stroke-width="22" stroke-linecap="round" stroke-linejoin="round"/>
  <path d="M394 188L438 256L394 324" stroke="#F4D58D" stroke-width="22" stroke-linecap="round" stroke-linejoin="round"/>
  <path d="M178 334V178H213V334H178ZM299 334V178H334V334H299ZM205 296H307V334H205V296Z" fill="#F8F8F8"/>
  <path d="M241 334L296 178H331L276 334H241Z" fill="url(#goldFill)"/>
  <circle cx="368" cy="358" r="16" fill="#F8D878"/>
  <path d="M128 126H197" stroke="#F8D878" stroke-width="10" stroke-linecap="round" opacity="0.78"/>
  <path d="M315 386H384" stroke="#F8D878" stroke-width="10" stroke-linecap="round" opacity="0.72"/>
  <defs>
    <linearGradient id="goldStroke" x1="75" y1="47" x2="447" y2="476" gradientUnits="userSpaceOnUse">
      <stop stop-color="#FFF4BF"/>
      <stop offset="0.45" stop-color="#D8A93D"/>
      <stop offset="1" stop-color="#8A6118"/>
    </linearGradient>
    <linearGradient id="goldFill" x1="254" y1="178" x2="329" y2="333" gradientUnits="userSpaceOnUse">
      <stop stop-color="#FFF3B0"/>
      <stop offset="0.5" stop-color="#D4A535"/>
      <stop offset="1" stop-color="#8E661D"/>
    </linearGradient>
  </defs>
</svg>
