<svg width="960" height="280" viewBox="0 0 960 280" fill="none" xmlns="http://www.w3.org/2000/svg">
  <rect width="960" height="280" rx="38" fill="#FFFFFF"/>
  <rect x="54" y="44" width="192" height="192" rx="42" fill="#050505"/>
  <rect x="60" y="50" width="180" height="180" rx="36" stroke="url(#goldStroke)" stroke-width="8"/>
  <path d="M99 115L71 140L99 165" stroke="#F5D98C" stroke-width="10" stroke-linecap="round" stroke-linejoin="round"/>
  <path d="M201 115L229 140L201 165" stroke="#F5D98C" stroke-width="10" stroke-linecap="round" stroke-linejoin="round"/>
  <path d="M121 174V102H137V174H121ZM174 174V102H190V174H174ZM134 157H179V174H134V157Z" fill="#FFFFFF"/>
  <path d="M150 174L176 102H192L166 174H150Z" fill="url(#goldFill)"/>
  <circle cx="204" cy="191" r="7" fill="#F8D878"/>
  <path d="M103 84H136" stroke="#F8D878" stroke-width="5" stroke-linecap="round" opacity="0.78"/>
  <path d="M164 202H197" stroke="#F8D878" stroke-width="5" stroke-linecap="round" opacity="0.72"/>
  <text x="305" y="86" fill="#A57615" font-family="Inter, Montserrat, Arial, sans-serif" font-size="20" font-weight="700" letter-spacing="7">USMAN AKHTAR</text>
  <text x="305" y="170" fill="#050505" font-family="Inter, Montserrat, Arial, sans-serif" font-size="72" font-weight="800" letter-spacing="1">UA</text>
  <text x="405" y="170" fill="url(#wordGold)" font-family="Inter, Montserrat, Arial, sans-serif" font-size="72" font-weight="800" letter-spacing="1">DEV</text>
  <path d="M305 204H486" stroke="#B98922" stroke-width="5" stroke-linecap="round"/>
  <text x="532" y="208" fill="#343434" font-family="Inter, Montserrat, Arial, sans-serif" font-size="18" font-weight="600" letter-spacing="5">SOFTWARE DEVELOPER + AI ENGINEER</text>
  <defs>
    <linearGradient id="goldStroke" x1="66" y1="50" x2="231" y2="225" gradientUnits="userSpaceOnUse">
      <stop stop-color="#FFF4BF"/>
      <stop offset="0.5" stop-color="#D8A93D"/>
      <stop offset="1" stop-color="#8A6118"/>
    </linearGradient>
    <linearGradient id="goldFill" x1="156" y1="102" x2="191" y2="174" gradientUnits="userSpaceOnUse">
      <stop stop-color="#FFF3B0"/>
      <stop offset="0.5" stop-color="#D4A535"/>
      <stop offset="1" stop-color="#8E661D"/>
    </linearGradient>
    <linearGradient id="wordGold" x1="405" y1="102" x2="548" y2="185" gradientUnits="userSpaceOnUse">
      <stop stop-color="#B98922"/>
      <stop offset="0.54" stop-color="#D4A535"/>
      <stop offset="1" stop-color="#76520F"/>
    </linearGradient>
  </defs>
</svg>
