<svg width="220" height="64" viewBox="0 0 220 64" fill="none" xmlns="http://www.w3.org/2000/svg">
  <rect width="64" height="64" rx="18" fill="#08111F"/>
  <rect x="1" y="1" width="62" height="62" rx="17" stroke="url(#paint0_linear)" stroke-opacity="0.75" stroke-width="2"/>
  <path d="M14 16V36.5C14 45.1 20.1 50 28 50C35.9 50 42 45.1 42 36.5V16H35.5V36.1C35.5 40.9 32.4 44.1 28 44.1C23.6 44.1 20.5 40.9 20.5 36.1V16H14Z" fill="url(#paint1_linear)"/>
  <path d="M35 50L46.9 16H53.8L41.9 50H35Z" fill="url(#paint2_linear)"/>
  <path d="M29.5 38H43.5L41.7 32.8H31.3L29.5 38Z" fill="#EAF2FF"/>
  <path d="M82 20.8C82 17.4 84.3 15.2 87.8 15.2C91.3 15.2 93.6 17.4 93.6 20.8V34.4C93.6 41.9 88.8 46.3 81.5 46.3C74.2 46.3 69.4 41.9 69.4 34.4V15.8H75.7V34.1C75.7 38.2 77.9 40.6 81.5 40.6C85.1 40.6 87.3 38.2 87.3 34.1V20.8H82Z" fill="#EAF2FF"/>
  <path d="M101.1 45.7V15.8H107.3V40.1H121.1V45.7H101.1Z" fill="#EAF2FF"/>
  <path d="M126.7 45.7V15.8H133L146.8 35.1V15.8H152.8V45.7H146.5L132.7 26.5V45.7H126.7Z" fill="#EAF2FF"/>
  <path d="M160.9 45.7V15.8H181.2V21.2H167.1V27.8H179.6V33.1H167.1V40.3H181.7V45.7H160.9Z" fill="#EAF2FF"/>
  <path d="M188.6 45.7V15.8H200.2C206.8 15.8 211 19.4 211 25.4C211 29.4 209.1 32.4 205.8 33.9L212 45.7H205.1L199.8 35.1H194.8V45.7H188.6ZM194.8 29.9H199.7C202.9 29.9 204.7 28.3 204.7 25.5C204.7 22.7 202.9 21.2 199.7 21.2H194.8V29.9Z" fill="#EAF2FF"/>
  <path d="M69.7 54H124.3" stroke="url(#paint3_linear)" stroke-width="3" stroke-linecap="round"/>
  <defs>
    <linearGradient id="paint0_linear" x1="0" y1="0" x2="64" y2="64" gradientUnits="userSpaceOnUse">
      <stop stop-color="#38BDF8"/>
      <stop offset="0.52" stop-color="#8B5CF6"/>
      <stop offset="1" stop-color="#EC4899"/>
    </linearGradient>
    <linearGradient id="paint1_linear" x1="14" y1="16" x2="42" y2="50" gradientUnits="userSpaceOnUse">
      <stop stop-color="#38BDF8"/>
      <stop offset="0.52" stop-color="#8B5CF6"/>
      <stop offset="1" stop-color="#EC4899"/>
    </linearGradient>
    <linearGradient id="paint2_linear" x1="35" y1="16" x2="53.8" y2="50" gradientUnits="userSpaceOnUse">
      <stop stop-color="#EC4899"/>
      <stop offset="1" stop-color="#38BDF8"/>
    </linearGradient>
    <linearGradient id="paint3_linear" x1="69.7" y1="54" x2="124.3" y2="54" gradientUnits="userSpaceOnUse">
      <stop stop-color="#38BDF8"/>
      <stop offset="0.5" stop-color="#8B5CF6"/>
      <stop offset="1" stop-color="#EC4899"/>
    </linearGradient>
  </defs>
</svg>
